# xmcd CD Database Entry
#
# Track frame offsets:
# 150
# 55247
# 94756
# 112647
# 153998
# 201593
# 237253
# 262331
#
# Disc length: 3797 seconds
#
# Revision: 2
# Processed by: cddbd v1.4PL0 Copyright (c) Steve Scherf et al.
# Submitted via: tcd 2.0b
#
DISCID=6a0ed308
DTITLE=The Boys - 3/15/2002
DYEAR=1900
DGENRE=
TTITLE0=Major, Minor, and a Little in Between
TTITLE1=A Little Shot of Tequila Goes a Long Way
TTITLE2=Sustained Sympathetic vibrations
TTITLE3=And Then I Don't Feel So Bad
TTITLE4=Close Enough for Ska
TTITLE5=Crush
TTITLE6=Professor Scow and the Miles Davis - Duke Ellington School of
TTITLE6=Philoskaphy
TTITLE7=Sunshine of Your Love ("Jimi Hendrix" Remix)
EXTD=
EXTT0=
EXTT1=
EXTT2=
EXTT3=
EXTT4=
EXTT5=
EXTT6=
EXTT7=
PLAYORDER=
